<?xml version="1.0" encoding="iso-8859-1"?>
<!-- Generator: Adobe Illustrator 19.0.0, SVG Export Plug-In . SVG Version: 6.00 Build 0)  -->
<svg version="1.1" id="Layer_1" xmlns="http://www.w3.org/2000/svg" xmlns:xlink="http://www.w3.org/1999/xlink" x="0px" y="0px"
	 viewBox="0 0 512.001 512.001" style="enable-background:new 0 0 512.001 512.001;" xml:space="preserve">
<circle style="fill:#00A8E1;" cx="255.999" cy="255.999" r="255.999"/>
<g>
	<path style="fill:#0071CE;" d="M256,0.002c-64.84,0-124.039,24.118-169.144,63.857c43.591,42.722,103.285,69.076,169.144,69.076
		s125.553-26.354,169.144-69.076C380.039,24.12,320.84,0.002,256,0.002z"/>
	<path style="fill:#0071CE;" d="M256,511.999c-64.84,0-124.039-24.118-169.144-63.857C130.447,405.42,190.141,379.066,256,379.066
		s125.553,26.352,169.144,69.076C380.039,487.881,320.84,511.999,256,511.999z"/>
</g>
<path style="fill:#0055B8;" d="M511.849,247.627h-91.983c-1.656-47.365-17.288-95.708-45.474-140.351
	C348.66,66.524,313.289,29.823,271.603,0.488C266.44,0.178,261.241,0.002,256,0.002s-10.44,0.176-15.603,0.487
	c-41.688,29.336-77.06,66.036-102.789,106.787c-28.187,44.643-43.819,92.986-45.474,140.351H0.151
	C0.061,250.408,0,253.197,0,256.001c0,2.803,0.061,5.592,0.151,8.374h91.982c1.655,47.367,17.288,95.714,45.476,140.36
	c25.727,40.747,61.094,77.444,102.777,106.778c5.167,0.311,10.37,0.488,15.615,0.488c5.244,0,10.447-0.176,15.615-0.488
	c41.682-29.333,77.049-66.031,102.777-106.778c28.188-44.646,43.821-92.992,45.477-140.36h91.982
	c0.089-2.781,0.151-5.57,0.151-8.374C512,253.197,511.939,250.408,511.849,247.627z M247.626,496.121
	c-38.846-27.778-71.793-62.216-95.857-100.328c-26.486-41.947-41.224-87.203-42.882-131.419h138.74v231.748H247.626z
	 M247.626,247.627h-138.74c1.66-44.214,16.399-89.465,42.882-131.41c24.065-38.112,57.011-72.549,95.857-100.328v231.739H247.626z
	 M360.231,395.792c-24.065,38.112-57.011,72.549-95.857,100.328V264.374h138.74C401.455,308.589,386.717,353.845,360.231,395.792z
	 M264.374,247.627V15.888c38.846,27.778,71.793,62.216,95.857,100.328c26.484,41.944,41.222,87.197,42.882,131.41H264.374z"/>
<g>
</g>
<g>
</g>
<g>
</g>
<g>
</g>
<g>
</g>
<g>
</g>
<g>
</g>
<g>
</g>
<g>
</g>
<g>
</g>
<g>
</g>
<g>
</g>
<g>
</g>
<g>
</g>
<g>
</g>
</svg>
