<?xml version="1.0" encoding="utf-8"?>
<!-- Generator: Adobe Illustrator 19.0.0, SVG Export Plug-In . SVG Version: 6.00 Build 0)  -->
<svg version="1.1" xmlns="http://www.w3.org/2000/svg" xmlns:xlink="http://www.w3.org/1999/xlink" x="0px" y="0px"
	 viewBox="0 0 800 200" style="enable-background:new 0 0 800 200;" xml:space="preserve">
<style type="text/css">
	.st0{display:none;}
	.st1{display:inline;}
	.st2{fill:#FFFFFF;}
	.st3{fill:#B8B8B8;}
	.st4{fill:#D6D6D6;}
	.st5{font-family:'MinionPro-Bold';}
	.st6{font-size:155.919px;}
	.st7{font-family:'AdobeDevanagari-Bold';}
	.st8{font-size:38.331px;}
	.st9{display:none;fill:#3E7BBF;}
	.st10{font-family:'Gabriola';}
	.st11{font-size:185.69px;}
	.st12{fill:#8E8E8E;}
	.st13{fill:#F1F2F2;}
</style>
<g id="Layer_4" class="st0">
	<g id="XMLID_4_" class="st1">
		<path id="XMLID_29_" class="st2" d="M644,159.6l1,24.8h14.3l-1.9-34.3h-13.7C643.8,153.4,643.9,156.6,644,159.6z"/>
		<path id="XMLID_30_" class="st2" d="M623.5,164.4h-0.3c-0.9-4.7-2-9.6-3.2-14.4h-12.5c0.7,2.9,1.4,5.7,2.2,8.2l6.9,25h11.4
			l7.9-25.2c0.8-2.5,1.7-5.2,2.5-8h-11.2C625.9,154.8,624.7,159.8,623.5,164.4z"/>
		<path id="XMLID_31_" class="st2" d="M587.8,184.3h13.5l1.2-24.6c0.2-3,0.3-6.4,0.5-9.8h-13L587.8,184.3z"/>
		<path id="XMLID_32_" class="st3" d="M636.6,119.7l-6.9,21.5c-0.8,2.8-1.7,5.8-2.5,8.8h11.2c1.7-5.6,3.3-11.5,4.7-17h0.3
			c0,5.8,0.1,11.6,0.3,17h13.7l-1.7-30.3H636.6z"/>
		<path id="XMLID_33_" class="st3" d="M617.8,141.3l-6.3-21.6H592L590,150h13c0.2-5.6,0.4-11.6,0.7-17h0.2c1,5.6,2.3,11.5,3.7,17
			H620C619.3,147,618.6,144.1,617.8,141.3z"/>
		<polygon id="XMLID_27_" class="st2" points="709,157 709,150 670.5,150 670.5,184.3 711.7,184.3 711.7,172.3 685.2,172.3 
			685.2,157 		"/>
		<polygon id="XMLID_28_" class="st3" points="709,145.1 685.2,145.1 685.2,131.7 710.4,131.7 710.4,119.7 670.5,119.7 670.5,150 
			709,150 		"/>
		<path id="XMLID_23_" class="st2" d="M721.7,184.3h13.4v-19.5c0-5.3,0-10.2-0.1-14.9h-13.3V184.3z"/>
		<path id="XMLID_26_" class="st2" d="M763.1,165.5h-0.3c-2-5-4.4-10.4-7-15.5h-14.6c1.7,3.3,3.3,6.5,5,9.4l13.8,25h15.4V150H762
			C762.2,155.3,762.5,160.5,763.1,165.5z"/>
		<path id="XMLID_34_" class="st3" d="M752.2,143.4l-13.4-23.7h-17.1V150H735c-0.1-4.7-0.2-9.1-0.4-13.4l0.3-0.1
			c1.8,4.4,4,9,6.3,13.5h14.6C754.6,147.7,753.4,145.5,752.2,143.4z"/>
		<path id="XMLID_35_" class="st3" d="M761.8,119.7v18.9c0,4,0.1,7.7,0.2,11.4h13.3v-30.3H761.8z"/>
	</g>
</g>
<g id="Layer_6" class="st0">
	<text id="XMLID_16_" transform="matrix(1 0 0 1 19.186 142.7734)" class="st4 st5 st6">wikiFeet</text>
	<text id="XMLID_17_" transform="matrix(1 0 0 1 18.9585 183.711)" class="st4 st7 st8">The collaborative celebrity feet website</text>
	<g id="XMLID_120_" class="st1">
		<path id="XMLID_121_" class="st2" d="M128.3,79.5c-7.5,1.2-8.6,2.5-11.8,10.6c-5.8,14.5-12.3,33.2-20,55h-5.9
			c-6.1-14.7-12.5-29.3-18.2-43.5c-5.9,14.5-11.4,28.7-17.3,43.5h-5.9c-6.2-19.2-12.9-38.4-18.7-55.8c-2.7-7.5-4.1-9-10.6-9.8v-5
			h38.5v5c-8.9,1.4-10,2.8-8.3,8.1c3.1,10,6.2,20.6,9.2,30.4h0.3c5.5-13.6,10.6-27.9,16.2-42.7h6.1c5.6,14.3,11.5,28.5,17.6,43h0.3
			c2.5-7.3,7.3-22.9,8.7-29.6c1.4-5.9,0.6-7.8-9-9.2v-5h28.8V79.5z"/>
		<path id="XMLID_123_" class="st2" d="M132.2,143.4v-5c9-1.1,10-1.7,10-12.8V94.8c0-10.3-1.1-10.8-8.6-12v-4.5
			c9.4-1.1,19.6-3.1,28.4-5.6v53c0,10.8,0.8,11.5,10.1,12.8v5H132.2z M139.8,51.9c0-6.2,5.1-10.9,11.1-10.9
			c6.2,0,11.1,4.7,11.1,10.9c0,5.9-4.8,10.9-11.2,10.9C145,62.8,139.8,57.8,139.8,51.9z"/>
		<path id="XMLID_126_" class="st2" d="M231.3,143.7c-4.5-5.8-13.4-19.8-20.3-30.9c-1.4-2.2-2.3-3-3.4-3c-0.2,0-0.5,0-1.1,0.2v16.5
			c0,10.1,1.1,10.6,10.1,11.8v5h-40.1v-5c9.4-1.2,10.3-1.6,10.3-11.8v-72c0-8.7-1.1-9.7-9.4-10.8v-4.4c7.2-0.9,18.4-2.7,29-5.6v71.6
			c3.6-0.8,6.5-3.4,8.9-5.9c3.4-3.9,7.3-10.1,9-13.6c1.9-3.3,1.2-5.3-4.7-6.2V75l33.7-1.4v4.7c-9.8,1.7-15.1,3.7-19.5,8.1
			c-4.2,4.2-6.5,6.9-10.9,12.8c4.1,6.9,17.8,25.3,22.6,31.3c5,5.6,7.6,7,13.1,8v5L231.3,143.7z"/>
		<path id="XMLID_128_" class="st2" d="M261.4,143.4v-5c9-1.1,10-1.7,10-12.8V94.8c0-10.3-1.1-10.8-8.6-12v-4.5
			c9.4-1.1,19.6-3.1,28.4-5.6v53c0,10.8,0.8,11.5,10.1,12.8v5H261.4z M269.1,51.9c0-6.2,5.1-10.9,11.1-10.9
			c6.2,0,11.1,4.7,11.1,10.9c0,5.9-4.8,10.9-11.2,10.9C274.2,62.8,269.1,57.8,269.1,51.9z"/>
		<path id="XMLID_131_" class="st2" d="M379.2,66.9c-1.7-5.9-3.6-10.4-6.2-13.4c-3.3-3.4-7.5-4.5-16.2-4.5h-7.8
			c-5.5,0-6.1,0.3-6.1,5.5v34.5h12.6c14,0,15.4-1.4,17.3-11.4h5.6v31h-5.6c-1.7-10.6-3.3-11.8-17.3-11.8h-12.6v24.6
			c0,14.7,1.2,15.6,14.8,16.7v5.5H309v-5.5c11.4-1.1,12.9-2,12.9-16.7V63.7c0-14-1.6-15.1-12.9-16.1v-5.6h73.9
			c0.2,2.7,0.9,14.7,1.7,23.7L379.2,66.9z"/>
		<path id="XMLID_133_" class="st2" d="M451.7,128c-9.5,14.2-21.7,17.3-28.1,17.3c-20.7,0-32.3-15.4-32.3-33.4
			c0-11.8,5-21.8,11.5-28.2c6.9-6.9,15.4-11.1,24-11.1c14.3,0,25.4,12.3,25.3,25.1c0,3.1-0.9,5.1-4.5,5.6
			c-2.8,0.3-21.8,1.9-37.1,2.5c0.8,16.7,10,25.1,21,25.1c6.1,0,11.8-2,17.3-6.7L451.7,128z M411.3,98.5c6.4-0.2,12.2-0.3,18.6-0.5
			c2.3-0.2,3.1-0.5,3.3-3.1c0-8-3.4-16.1-9.5-16.1C417.7,78.9,412.2,86,411.3,98.5z"/>
		<path id="XMLID_136_" class="st2" d="M521.8,128c-9.5,14.2-21.7,17.3-28.1,17.3c-20.7,0-32.3-15.4-32.3-33.4
			c0-11.8,5-21.8,11.5-28.2c6.9-6.9,15.4-11.1,24-11.1c14.3,0,25.4,12.3,25.3,25.1c0,3.1-0.9,5.1-4.5,5.6
			c-2.8,0.3-21.8,1.9-37.1,2.5c0.8,16.7,10,25.1,21,25.1c6.1,0,11.8-2,17.3-6.7L521.8,128z M481.4,98.5c6.4-0.2,12.2-0.3,18.6-0.5
			c2.3-0.2,3.1-0.5,3.3-3.1c0-8-3.4-16.1-9.5-16.1C487.8,78.9,482.4,86,481.4,98.5z"/>
		<path id="XMLID_139_" class="st2" d="M564.1,143.6c-2.8,1.1-5.3,1.7-6.4,1.7c-12,0-19-5.6-19-19.6V82h-9.8l-0.8-1.9l4.4-5.6h6.2
			V63.1l17.6-12.2l2.2,0.9v22.6h15.3c1.9,1.7,1.6,6.2-0.9,7.5h-14.3v38.5c0,12.2,5.6,13.6,8.9,13.6c2.7,0,5.1-0.6,7.8-1.9l1.6,5.5
			L564.1,143.6z"/>
	</g>
	<g id="XMLID_9_" class="st1">
		<path id="XMLID_21_" class="st2" d="M48.9,184.3v-1.2c1.9-0.3,2-0.5,2-2.5v-6c0-2.8-1.2-4-2.9-3.9c-1.1,0-2.2,0.4-3.1,1.4v8.5
			c0,2.1,0.2,2.3,2,2.5v1.2h-8.1v-1.2c2.2-0.3,2.4-0.5,2.4-2.7v-17.3c-1.6-0.2-3.4-0.3-6.8-0.3h-1.9v16.8c0,2.9,0.3,3.1,3.3,3.4v1.3
			H25.2v-1.3c2.9-0.3,3.2-0.4,3.2-3.4v-16.8h-1.8c-2.9,0-3.5,0.4-4,1.1c-0.5,0.6-0.9,1.4-1.2,3.1h-1.3c0.1-2.4,0.3-4.8,0.4-6.6h0.8
			c0.5,0.8,1,0.9,1.9,0.9h14.5c2.8,0,3.4-0.2,3.4-0.8v-0.4c1.1-0.2,2.8-0.6,3.7-0.9v11.3c1.3-1.3,3-2.3,4.8-2.3c3.1,0,5,1.9,5,5.9
			v6.4c0,2.2,0.2,2.3,2.2,2.6v1.2H48.9z"/>
		<path id="XMLID_24_" class="st2" d="M71.9,181.2c-2.2,2.9-4.7,3.6-6.1,3.6c-4.5,0-7.1-3.5-7.1-7.6c0-2.7,1.1-4.9,2.5-6.4
			c1.5-1.5,3.4-2.5,5.2-2.5h0c3.1,0,5.6,2.8,5.6,5.7c0,0.8-0.1,1.2-0.9,1.3c-0.6,0.1-5,0.4-8.7,0.6c0.1,4.1,2.4,6,4.9,6
			c1.4,0,2.7-0.5,4-1.6L71.9,181.2z M62.6,174.1c1.7,0,3.3,0,5-0.1c0.6,0,0.8-0.2,0.8-0.7c0-1.8-1-3.5-2.5-3.5
			C64.3,169.7,63,171.4,62.6,174.1z"/>
		<path id="XMLID_37_" class="st2" d="M95.3,181.1c-1.6,2.2-3.9,3.7-6,3.7c-4.6,0-7.4-3.7-7.4-7.6c0-2.6,1.3-5.1,3.6-6.9
			c2.1-1.5,4.3-2.1,5.6-2.1h0c1.3,0,2.5,0.4,3.1,0.9c0.5,0.4,0.7,0.8,0.6,1.3c0,1-0.9,1.9-1.4,1.9c-0.2,0-0.4-0.1-0.7-0.4
			c-1.3-1.2-2.4-1.7-3.5-1.7c-1.9,0-3.5,1.8-3.5,5.4c0,4.8,3.2,6.3,4.9,6.3c1.5,0,2.5-0.4,4-1.6L95.3,181.1z"/>
		<path id="XMLID_39_" class="st2" d="M105,168.2c4.6,0,7.8,3.6,7.8,8c0,5.7-4.1,8.6-7.8,8.6c-5.2,0-8-4-8-7.9
			C96.9,171,101.4,168.2,105,168.2L105,168.2z M104.5,169.6c-1.7,0-3.3,2-3.3,6c0,4.4,1.6,7.7,4.1,7.7c1.7,0,3.2-1.3,3.2-6.2
			C108.5,172.6,107.1,169.6,104.5,169.6L104.5,169.6z"/>
		<path id="XMLID_42_" class="st2" d="M114.2,184.3v-1.2c2.1-0.3,2.4-0.5,2.4-2.7v-16.1c0-2.2-0.2-2.3-2.3-2.5v-1.1
			c2-0.2,4.4-0.7,6-1.2v21c0,2.3,0.2,2.5,2.5,2.7v1.2H114.2z"/>
		<path id="XMLID_44_" class="st2" d="M124.1,184.3v-1.2c2.1-0.3,2.4-0.5,2.4-2.7v-16.1c0-2.2-0.2-2.3-2.3-2.5v-1.1
			c2-0.2,4.4-0.7,6-1.2v21c0,2.3,0.2,2.5,2.5,2.7v1.2H124.1z"/>
		<path id="XMLID_46_" class="st2" d="M145.7,184.8c-0.8,0-1.5-0.3-1.9-0.7c-0.5-0.5-0.7-1-0.9-1.4c-1.4,0.9-3,2.1-3.9,2.1
			c-2.8,0-4.6-2.2-4.6-4.5c0-1.8,0.9-2.8,2.8-3.6c2-0.7,4.8-1.6,5.6-2.4v-0.7c0-2.3-1-3.6-2.5-3.6c-0.6,0-1,0.2-1.4,0.7
			c-0.4,0.5-0.7,1.3-1,2.4c-0.2,0.8-0.7,1-1.3,1c-0.8,0-1.9-0.8-1.9-1.7c0-0.6,0.4-1,1.2-1.6c1.2-0.8,3.5-2.1,5.6-2.5
			c1.3,0,2.4,0.3,3.3,1.1c1.4,1.1,1.7,2.6,1.7,4.4v6.2c0,1.6,0.6,2.2,1.1,2.2c0.5,0,0.9-0.2,1.3-0.3l0.4,1.2L145.7,184.8z
			 M142.8,175.8c-0.8,0.4-1.9,0.9-2.6,1.3c-1.2,0.6-1.8,1.2-1.8,2.5c0,1.8,1.3,2.6,2.3,2.6c0.7,0,1.5-0.4,2.1-0.9L142.8,175.8z"/>
		<path id="XMLID_49_" class="st2" d="M157.4,168.8c0.8-0.4,1.3-0.6,1.9-0.6c4,0,7.1,3.4,7.1,7.5c0,5.3-4.1,9.1-9,9.1
			c-1.8,0-3.5-0.4-5.7-1.3v-19.1c0-2-0.1-2.3-2.3-2.5v-1.2c1.8-0.2,4.3-0.7,6-1.2v10.1L157.4,168.8z M155.4,180.3
			c0,0.5,0.1,0.9,0.2,1.2c0.2,0.6,1.1,1.7,2.5,1.7c2.3,0,4.1-2.2,4.1-6.5c0-4.3-2.3-6.2-4.8-6.2c-0.7,0-1.4,0.2-2,0.4V180.3z"/>
		<path id="XMLID_52_" class="st2" d="M177.2,168.2c4.6,0,7.8,3.6,7.8,8c0,5.7-4.1,8.6-7.8,8.6c-5.2,0-8-4-8-7.9
			C169.1,171,173.6,168.2,177.2,168.2L177.2,168.2z M176.7,169.6c-1.7,0-3.3,2-3.3,6c0,4.4,1.6,7.7,4.1,7.7c1.7,0,3.2-1.3,3.2-6.2
			C180.7,172.6,179.3,169.6,176.7,169.6L176.7,169.6z"/>
		<path id="XMLID_55_" class="st2" d="M193,171.9c1.2-2.1,2.6-3.7,4.1-3.7c1.3,0,2.2,1,2.2,2.1c0,1-0.7,1.9-1.5,2.3
			c-0.4,0.2-0.8,0.1-1-0.1c-0.5-0.5-1-0.7-1.6-0.7c-0.8,0-1.7,0.7-2.3,2.4v6.4c0,2.2,0.1,2.4,2.9,2.6v1.2h-9v-1.2
			c2.1-0.2,2.3-0.4,2.3-2.6v-7.5c0-2-0.2-2.2-2-2.5v-1.1c2-0.3,3.9-0.7,5.8-1.4L193,171.9L193,171.9z"/>
		<path id="XMLID_57_" class="st2" d="M212.2,184.8c-0.8,0-1.5-0.3-1.9-0.7c-0.5-0.5-0.7-1-0.9-1.4c-1.4,0.9-3,2.1-3.9,2.1
			c-2.8,0-4.6-2.2-4.6-4.5c0-1.8,0.9-2.8,2.8-3.6c2-0.7,4.8-1.6,5.6-2.4v-0.7c0-2.3-1-3.6-2.5-3.6c-0.6,0-1,0.2-1.4,0.7
			c-0.4,0.5-0.7,1.3-1,2.4c-0.2,0.8-0.7,1-1.3,1c-0.8,0-1.9-0.8-1.9-1.7c0-0.6,0.4-1,1.2-1.6c1.2-0.8,3.5-2.1,5.6-2.5
			c1.3,0,2.4,0.3,3.3,1.1c1.4,1.1,1.7,2.6,1.7,4.4v6.2c0,1.6,0.6,2.2,1.1,2.2c0.5,0,0.9-0.2,1.3-0.3l0.4,1.2L212.2,184.8z
			 M209.4,175.8c-0.8,0.4-1.9,0.9-2.6,1.3c-1.2,0.6-1.8,1.2-1.8,2.5c0,1.8,1.3,2.6,2.3,2.6c0.7,0,1.5-0.4,2.1-0.9L209.4,175.8z"/>
		<path id="XMLID_60_" class="st2" d="M223.8,184.3c-0.7,0.3-1.2,0.4-1.5,0.4c-2.5,0-3.9-1.3-3.9-4.4v-10h-2.3l-0.1-0.5l1-1.3h1.5
			v-2.5l3.3-2.6l0.5,0.2v4.9h3.7c0.4,0.4,0.3,1.5-0.3,1.8h-3.4v8.7c0,2.8,1.2,3.2,2,3.2c0.7,0,1.4-0.2,2-0.5l0.3,1.3L223.8,184.3z"
			/>
		<path id="XMLID_62_" class="st2" d="M227.9,184.3v-1.2c2.1-0.3,2.3-0.4,2.3-2.8v-7.1c0-2.3-0.2-2.3-2.1-2.6v-1.1
			c2.1-0.3,4.1-0.7,5.9-1.3v12.2c0,2.4,0.2,2.6,2.4,2.8v1.2H227.9z M229.6,163.6c0-1.3,1.1-2.3,2.3-2.3c1.3,0,2.2,1,2.2,2.3
			c0,1.2-1,2.2-2.3,2.2C230.7,165.8,229.6,164.7,229.6,163.6z"/>
		<path id="XMLID_65_" class="st2" d="M253.7,169.9c-1.8,0.3-2.2,0.6-3,2.4c-1.2,2.8-3,7.1-5,12.4h-1.3c-1.6-4.3-3.2-8.4-4.9-12.5
			c-0.7-1.8-1.1-2.1-2.9-2.4v-1.2h8v1.2c-1.7,0.2-1.8,0.5-1.3,1.8c0.8,2.5,2.2,6.1,2.9,7.9c0.8-2.1,1.9-5.3,2.7-7.7
			c0.5-1.3,0.3-1.7-1.6-2v-1.2h6.4V169.9z"/>
		<path id="XMLID_67_" class="st2" d="M267.5,181.2c-2.2,2.9-4.7,3.6-6.1,3.6c-4.5,0-7.1-3.5-7.1-7.6c0-2.7,1.1-4.9,2.5-6.4
			c1.5-1.5,3.4-2.5,5.2-2.5h0c3.1,0,5.6,2.8,5.6,5.7c0,0.8-0.1,1.2-0.9,1.3c-0.6,0.1-5,0.4-8.7,0.6c0.1,4.1,2.4,6,4.9,6
			c1.4,0,2.7-0.5,4-1.6L267.5,181.2z M258.1,174.1c1.7,0,3.3,0,5-0.1c0.6,0,0.8-0.2,0.8-0.7c0-1.8-1-3.5-2.5-3.5
			C259.8,169.7,258.5,171.4,258.1,174.1z"/>
		<path id="XMLID_70_" class="st2" d="M290.8,181.1c-1.6,2.2-3.9,3.7-6,3.7c-4.6,0-7.4-3.7-7.4-7.6c0-2.6,1.3-5.1,3.6-6.9
			c2.1-1.5,4.3-2.1,5.6-2.1h0c1.3,0,2.5,0.4,3.1,0.9c0.5,0.4,0.7,0.8,0.6,1.3c0,1-0.9,1.9-1.4,1.9c-0.2,0-0.4-0.1-0.7-0.4
			c-1.3-1.2-2.4-1.7-3.5-1.7c-1.9,0-3.5,1.8-3.5,5.4c0,4.8,3.2,6.3,4.9,6.3c1.5,0,2.5-0.4,4-1.6L290.8,181.1z"/>
		<path id="XMLID_72_" class="st2" d="M305.7,181.2c-2.2,2.9-4.7,3.6-6.1,3.6c-4.5,0-7.1-3.5-7.1-7.6c0-2.7,1.1-4.9,2.5-6.4
			c1.5-1.5,3.4-2.5,5.2-2.5h0c3.1,0,5.6,2.8,5.6,5.7c0,0.8-0.1,1.2-0.9,1.3c-0.6,0.1-5,0.4-8.7,0.6c0.1,4.1,2.4,6,4.9,6
			c1.4,0,2.7-0.5,4-1.6L305.7,181.2z M296.3,174.1c1.7,0,3.3,0,5-0.1c0.6,0,0.8-0.2,0.8-0.7c0-1.8-1-3.5-2.5-3.5
			C298,169.7,296.7,171.4,296.3,174.1z"/>
		<path id="XMLID_75_" class="st2" d="M307.1,184.3v-1.2c2.1-0.3,2.4-0.5,2.4-2.7v-16.1c0-2.2-0.2-2.3-2.3-2.5v-1.1
			c2-0.2,4.4-0.7,6-1.2v21c0,2.3,0.2,2.5,2.5,2.7v1.2H307.1z"/>
		<path id="XMLID_77_" class="st2" d="M330.6,181.2c-2.2,2.9-4.7,3.6-6.1,3.6c-4.5,0-7.1-3.5-7.1-7.6c0-2.7,1.1-4.9,2.5-6.4
			c1.5-1.5,3.4-2.5,5.2-2.5h0c3.1,0,5.6,2.8,5.6,5.7c0,0.8-0.1,1.2-0.9,1.3c-0.6,0.1-5,0.4-8.7,0.6c0.1,4.1,2.4,6,4.9,6
			c1.4,0,2.7-0.5,4-1.6L330.6,181.2z M321.2,174.1c1.7,0,3.3,0,5-0.1c0.6,0,0.8-0.2,0.8-0.7c0-1.8-1-3.5-2.5-3.5
			C323,169.7,321.6,171.4,321.2,174.1z"/>
		<path id="XMLID_80_" class="st2" d="M339.8,168.8c0.8-0.4,1.3-0.6,1.9-0.6c4,0,7.1,3.4,7.1,7.5c0,5.3-4.1,9.1-9,9.1
			c-1.8,0-3.5-0.4-5.7-1.3v-19.1c0-2-0.1-2.3-2.3-2.5v-1.2c1.8-0.2,4.3-0.7,6-1.2v10.1L339.8,168.8z M337.8,180.3
			c0,0.5,0.1,0.9,0.2,1.2c0.2,0.6,1.1,1.7,2.5,1.7c2.3,0,4.1-2.2,4.1-6.5c0-4.3-2.3-6.2-4.8-6.2c-0.7,0-1.4,0.2-2,0.4V180.3z"/>
		<path id="XMLID_83_" class="st2" d="M356.9,171.9c1.2-2.1,2.6-3.7,4.1-3.7c1.3,0,2.2,1,2.2,2.1c0,1-0.7,1.9-1.5,2.3
			c-0.4,0.2-0.8,0.1-1-0.1c-0.5-0.5-1-0.7-1.6-0.7c-0.8,0-1.7,0.7-2.3,2.4v6.4c0,2.2,0.1,2.4,2.9,2.6v1.2h-9v-1.2
			c2.1-0.2,2.3-0.4,2.3-2.6v-7.5c0-2-0.2-2.2-2-2.5v-1.1c2-0.3,3.9-0.7,5.8-1.4L356.9,171.9L356.9,171.9z"/>
		<path id="XMLID_85_" class="st2" d="M364.8,184.3v-1.2c2.1-0.3,2.3-0.4,2.3-2.8v-7.1c0-2.3-0.2-2.3-2.1-2.6v-1.1
			c2.1-0.3,4.1-0.7,5.9-1.3v12.2c0,2.4,0.2,2.6,2.4,2.8v1.2H364.8z M366.5,163.6c0-1.3,1.1-2.3,2.3-2.3c1.3,0,2.2,1,2.2,2.3
			c0,1.2-1,2.2-2.3,2.2C367.5,165.8,366.5,164.7,366.5,163.6z"/>
		<path id="XMLID_88_" class="st2" d="M382,184.3c-0.7,0.3-1.2,0.4-1.5,0.4c-2.5,0-3.9-1.3-3.9-4.4v-10h-2.3l-0.1-0.5l1-1.3h1.5
			v-2.5l3.3-2.6l0.5,0.2v4.9h3.7c0.4,0.4,0.3,1.5-0.3,1.8h-3.4v8.7c0,2.8,1.2,3.2,2,3.2c0.7,0,1.4-0.2,2-0.5l0.3,1.3L382,184.3z"/>
		<path id="XMLID_90_" class="st2" d="M402,169.9c-1.8,0.3-2.1,0.6-3,2.5c-0.8,1.9-2,4.8-4.2,10.1c-2.3,5.7-3,7.7-3.6,9.6
			c-0.2,0.7-0.7,1-1.3,1c-1,0-2.3-1-2.3-2.1c0-0.6,0.3-0.9,1-1.3c1.2-0.7,1.9-1.5,2.6-2.6c0.5-0.9,0.7-1.4,0.8-1.8
			c0.1-0.5,0.1-1-0.1-1.6c-1.6-4.6-3.4-9.3-4.2-11.3c-0.7-1.7-1.1-2.1-2.9-2.3v-1.2h8.1v1.2c-1.6,0.2-1.8,0.5-1.4,1.7l2.8,8.2
			c0.9-2.3,2.2-5.9,2.9-8.1c0.4-1.2,0.2-1.6-1.7-1.9v-1.2h6.5V169.9z"/>
		<path id="XMLID_92_" class="st2" d="M412.6,168.6V168c0-0.9,0.2-1.7,0.4-2.5c0.2-0.8,0.9-2.5,2.8-4.1c1.3-1.1,2.6-1.8,4.1-1.9
			c1.4,0,2.3,0.5,2.8,1.1c0.4,0.4,0.5,1,0.3,1.4c-0.1,0.3-0.4,0.8-0.9,1.2c-0.4,0.3-0.8,0.3-1.1,0c-0.8-0.8-1.8-1.5-2.9-1.5
			c-0.7,0-1.1,0.4-1.4,1c-0.3,0.7-0.5,1.9-0.4,4.9l0,1.1h4c0.2,0.4,0,1.5-0.4,1.8h-3.6v10c0,2.3,0.2,2.5,2.9,2.7v1.2h-9v-1.2
			c2.1-0.3,2.3-0.5,2.3-2.7v-10.1h-2.3l-0.2-0.5l1-1.3H412.6z"/>
		<path id="XMLID_94_" class="st2" d="M434.4,181.2c-2.2,2.9-4.7,3.6-6.1,3.6c-4.5,0-7.1-3.5-7.1-7.6c0-2.7,1.1-4.9,2.5-6.4
			c1.5-1.5,3.4-2.5,5.2-2.5h0c3.1,0,5.6,2.8,5.6,5.7c0,0.8-0.2,1.2-0.9,1.3c-0.6,0.1-5,0.4-8.7,0.6c0.1,4.1,2.4,6,4.9,6
			c1.4,0,2.7-0.5,4-1.6L434.4,181.2z M425.1,174.1c1.7,0,3.3,0,5-0.1c0.6,0,0.8-0.2,0.8-0.7c0-1.8-1-3.5-2.5-3.5
			C426.8,169.7,425.5,171.4,425.1,174.1z"/>
		<path id="XMLID_97_" class="st2" d="M450.1,181.2c-2.2,2.9-4.7,3.6-6.1,3.6c-4.5,0-7.1-3.5-7.1-7.6c0-2.7,1.1-4.9,2.5-6.4
			c1.5-1.5,3.4-2.5,5.2-2.5h0c3.1,0,5.6,2.8,5.6,5.7c0,0.8-0.2,1.2-0.9,1.3c-0.6,0.1-5,0.4-8.7,0.6c0.1,4.1,2.4,6,4.9,6
			c1.4,0,2.7-0.5,4-1.6L450.1,181.2z M440.8,174.1c1.7,0,3.3,0,5-0.1c0.6,0,0.8-0.2,0.8-0.7c0-1.8-1-3.5-2.5-3.5
			C442.5,169.7,441.2,171.4,440.8,174.1z"/>
		<path id="XMLID_100_" class="st2" d="M459.6,184.3c-0.7,0.3-1.2,0.4-1.5,0.4c-2.5,0-3.9-1.3-3.9-4.4v-10h-2.3l-0.1-0.5l1-1.3h1.5
			v-2.5l3.3-2.6l0.5,0.2v4.9h3.7c0.4,0.4,0.3,1.5-0.3,1.8H458v8.7c0,2.8,1.2,3.2,2,3.2c0.7,0,1.4-0.2,2-0.5l0.3,1.3L459.6,184.3z"/>
		<path id="XMLID_102_" class="st2" d="M495,169.9c-1.7,0.3-2,0.5-2.8,2.4c-1.2,3.2-2.7,7.5-4.3,12.4h-1.3
			c-1.3-3.5-2.8-6.9-4.1-10.3c-1.3,3.4-2.6,6.7-4,10.3h-1.3c-1.3-4.3-2.8-8.6-4.1-12.6c-0.6-1.7-0.9-2-2.5-2.2v-1.2h8.1v1.2
			c-2,0.3-2.2,0.5-1.8,1.9c0.7,2.4,1.5,5,2.2,7.5h0.1c1.3-3.3,2.5-6.7,3.8-10.4h1.3c1.3,3.4,2.6,6.9,4,10.4h0.1
			c0.6-2,1.6-5.3,2.1-7.3c0.4-1.6,0.1-1.8-2-2.1v-1.2h6.6V169.9z"/>
		<path id="XMLID_104_" class="st2" d="M508.8,181.2c-2.2,2.9-4.7,3.6-6.1,3.6c-4.5,0-7.1-3.5-7.1-7.6c0-2.7,1.1-4.9,2.5-6.4
			c1.5-1.5,3.4-2.5,5.2-2.5h0c3.1,0,5.6,2.8,5.6,5.7c0,0.8-0.2,1.2-0.9,1.3c-0.6,0.1-5,0.4-8.7,0.6c0.1,4.1,2.4,6,4.9,6
			c1.4,0,2.7-0.5,4-1.6L508.8,181.2z M499.5,174.1c1.7,0,3.3,0,5-0.1c0.6,0,0.8-0.2,0.8-0.7c0-1.8-1-3.5-2.5-3.5
			C501.2,169.7,499.9,171.4,499.5,174.1z"/>
		<path id="XMLID_107_" class="st2" d="M518.1,168.8c0.8-0.4,1.3-0.6,1.9-0.6c4,0,7.1,3.4,7.1,7.5c0,5.3-4.1,9.1-9,9.1
			c-1.8,0-3.5-0.4-5.7-1.3v-19.1c0-2-0.1-2.3-2.3-2.5v-1.2c1.8-0.2,4.3-0.7,6-1.2v10.1L518.1,168.8z M516.1,180.3
			c0,0.5,0.1,0.9,0.2,1.2c0.2,0.6,1.1,1.7,2.5,1.7c2.3,0,4.1-2.2,4.1-6.5c0-4.3-2.3-6.2-4.8-6.2c-0.7,0-1.4,0.2-2,0.4V180.3z"/>
		<path id="XMLID_110_" class="st2" d="M538.9,173.1c-0.9-2.3-2-3.6-3.6-3.6c-1.1,0-2,0.9-2,2.1c0,1.3,1,2,2.8,2.8
			c2.8,1.1,4.7,2.5,4.7,5.1c0,3.4-3.2,5.1-6.1,5.1c-1.9,0-3.7-0.7-4.4-1.2c-0.2-0.6-0.5-3-0.6-4.5l1.2-0.1c0.7,2.3,2.2,4.5,4.3,4.5
			c1.2,0,2.2-0.9,2.2-2.1c0-1.3-0.8-2.2-2.7-3.1c-1.9-0.9-4.5-2.2-4.5-5.1c0-2.7,2.2-4.9,5.8-4.9c1.6,0,2.5,0.3,3.3,0.7
			c0.3,0.8,0.8,3.2,0.8,4L538.9,173.1z"/>
		<path id="XMLID_112_" class="st2" d="M542.7,184.3v-1.2c2.1-0.3,2.3-0.4,2.3-2.8v-7.1c0-2.3-0.2-2.3-2.1-2.6v-1.1
			c2.1-0.3,4.1-0.7,5.9-1.3v12.2c0,2.4,0.2,2.6,2.4,2.8v1.2H542.7z M544.4,163.6c0-1.3,1.1-2.3,2.3-2.3c1.3,0,2.2,1,2.2,2.3
			c0,1.2-1,2.2-2.3,2.2C545.5,165.8,544.4,164.7,544.4,163.6z"/>
		<path id="XMLID_115_" class="st2" d="M559.9,184.3c-0.7,0.3-1.2,0.4-1.5,0.4c-2.5,0-3.9-1.3-3.9-4.4v-10h-2.3l-0.1-0.5l1-1.3h1.5
			v-2.5l3.3-2.6l0.5,0.2v4.9h3.7c0.4,0.4,0.3,1.5-0.3,1.8h-3.4v8.7c0,2.8,1.2,3.2,2,3.2c0.7,0,1.4-0.2,2-0.5l0.3,1.3L559.9,184.3z"
			/>
		<path id="XMLID_117_" class="st2" d="M577,181.2c-2.2,2.9-4.7,3.6-6.1,3.6c-4.5,0-7.1-3.5-7.1-7.6c0-2.7,1.1-4.9,2.5-6.4
			c1.5-1.5,3.4-2.5,5.2-2.5h0c3.1,0,5.6,2.8,5.6,5.7c0,0.8-0.2,1.2-0.9,1.3c-0.6,0.1-5,0.4-8.7,0.6c0.1,4.1,2.4,6,4.9,6
			c1.4,0,2.7-0.5,4-1.6L577,181.2z M567.6,174.1c1.7,0,3.3,0,5-0.1c0.6,0,0.8-0.2,0.8-0.7c0-1.8-1-3.5-2.5-3.5
			C569.4,169.7,568,171.4,567.6,174.1z"/>
	</g>
</g>
<g id="Layer_5">
	<text id="XMLID_1_" transform="matrix(1 0 0 1 23.4434 142.1582)" class="st9 st10 st11">wikiFeet</text>
	<text id="XMLID_2_" transform="matrix(1 0 0 1 18.9585 183.711)" class="st9 st7 st8">The collaborative celebrity feet website</text>
	<g id="Layer_1">
	</g>
	<g id="XMLID_141_">
		<path id="XMLID_142_" class="st12" d="M51,183.7v-1.2c1.9-0.3,2-0.5,2-2.5v-6c0-2.8-1.2-4-2.9-3.9c-1.1,0-2.2,0.4-3.1,1.4v8.5
			c0,2.1,0.2,2.3,2,2.5v1.2h-8.1v-1.2c2.2-0.3,2.4-0.5,2.4-2.7v-17.3c-1.6-0.2-3.4-0.3-6.8-0.3h-1.9v16.8c0,2.9,0.3,3.1,3.3,3.4v1.3
			H27.3v-1.3c2.9-0.3,3.2-0.4,3.2-3.4v-16.8h-1.8c-2.9,0-3.5,0.4-4,1.1c-0.5,0.6-0.9,1.4-1.2,3.1h-1.3c0.2-2.4,0.3-4.8,0.4-6.6h0.8
			c0.5,0.8,1,0.9,1.9,0.9h14.5c2.8,0,3.4-0.2,3.4-0.8v-0.4c1.1-0.2,2.8-0.6,3.7-0.9v11.3c1.3-1.3,3-2.3,4.8-2.3c3.1,0,5,1.9,5,5.9
			v6.4c0,2.2,0.2,2.3,2.2,2.6v1.2H51z"/>
		<path id="XMLID_144_" class="st12" d="M74.1,180.5c-2.2,2.9-4.7,3.6-6.1,3.6c-4.5,0-7.1-3.5-7.1-7.6c0-2.7,1.1-4.9,2.5-6.4
			c1.5-1.5,3.4-2.5,5.2-2.5h0c3.1,0,5.6,2.8,5.6,5.7c0,0.8-0.1,1.2-0.9,1.3c-0.6,0.1-5,0.4-8.7,0.6c0.1,4.1,2.4,6,4.9,6
			c1.4,0,2.7-0.5,4-1.6L74.1,180.5z M64.7,173.4c1.7,0,3.3,0,5-0.1c0.6,0,0.8-0.2,0.8-0.7c0-1.8-1-3.5-2.5-3.5
			C66.4,169.1,65.1,170.7,64.7,173.4z"/>
		<path id="XMLID_147_" class="st12" d="M97.4,180.5c-1.6,2.2-3.9,3.7-6,3.7c-4.6,0-7.4-3.7-7.4-7.6c0-2.6,1.3-5.1,3.6-6.9
			c2.1-1.5,4.3-2.1,5.6-2.1h0c1.3,0,2.5,0.4,3.1,0.9c0.5,0.4,0.7,0.8,0.6,1.3c0,1-0.9,1.9-1.4,1.9c-0.2,0-0.4-0.1-0.7-0.4
			c-1.3-1.2-2.4-1.7-3.5-1.7c-1.9,0-3.5,1.8-3.5,5.4c0,4.8,3.2,6.3,4.9,6.3c1.5,0,2.5-0.4,4-1.6L97.4,180.5z"/>
		<path id="XMLID_149_" class="st12" d="M107.1,167.6c4.6,0,7.8,3.6,7.8,8c0,5.7-4.1,8.6-7.8,8.6c-5.2,0-8-4-8-7.9
			C99,170.3,103.5,167.6,107.1,167.6L107.1,167.6z M106.6,169c-1.7,0-3.3,2-3.3,6c0,4.4,1.6,7.7,4.1,7.7c1.7,0,3.2-1.3,3.2-6.2
			C110.6,172,109.2,169,106.6,169L106.6,169z"/>
		<path id="XMLID_152_" class="st12" d="M116.4,183.7v-1.2c2.1-0.3,2.4-0.5,2.4-2.7v-16.1c0-2.2-0.2-2.3-2.3-2.5v-1.1
			c2-0.2,4.4-0.7,6-1.2v21c0,2.3,0.2,2.5,2.5,2.7v1.2H116.4z"/>
		<path id="XMLID_154_" class="st12" d="M126.2,183.7v-1.2c2.1-0.3,2.4-0.5,2.4-2.7v-16.1c0-2.2-0.2-2.3-2.3-2.5v-1.1
			c2-0.2,4.4-0.7,6-1.2v21c0,2.3,0.2,2.5,2.5,2.7v1.2H126.2z"/>
		<path id="XMLID_156_" class="st12" d="M147.8,184.1c-0.8,0-1.5-0.3-1.9-0.7c-0.5-0.5-0.7-1-0.9-1.4c-1.4,0.9-3,2.1-3.9,2.1
			c-2.8,0-4.6-2.2-4.6-4.5c0-1.8,0.9-2.8,2.8-3.6c2-0.7,4.8-1.6,5.6-2.4v-0.7c0-2.3-1-3.6-2.5-3.6c-0.6,0-1,0.2-1.4,0.7
			c-0.4,0.5-0.7,1.3-1,2.4c-0.2,0.8-0.7,1-1.3,1c-0.8,0-1.9-0.8-1.9-1.7c0-0.6,0.4-1,1.2-1.6c1.2-0.8,3.5-2.1,5.6-2.5
			c1.3,0,2.4,0.3,3.3,1.1c1.4,1.1,1.7,2.6,1.7,4.4v6.2c0,1.6,0.6,2.2,1.1,2.2c0.5,0,0.9-0.2,1.3-0.3l0.4,1.2L147.8,184.1z
			 M144.9,175.2c-0.8,0.4-1.9,0.9-2.6,1.3c-1.2,0.6-1.8,1.2-1.8,2.5c0,1.8,1.3,2.6,2.3,2.6c0.7,0,1.5-0.4,2.1-0.9L144.9,175.2z"/>
		<path id="XMLID_159_" class="st12" d="M159.5,168.2c0.8-0.4,1.3-0.6,1.9-0.6c4,0,7.1,3.4,7.1,7.5c0,5.3-4.1,9.1-9,9.1
			c-1.8,0-3.5-0.4-5.7-1.3v-19.1c0-2-0.1-2.3-2.3-2.5v-1.2c1.8-0.2,4.3-0.7,6-1.2V169L159.5,168.2z M157.5,179.7
			c0,0.5,0.1,0.9,0.2,1.2c0.2,0.6,1.1,1.7,2.5,1.7c2.3,0,4.1-2.2,4.1-6.5c0-4.3-2.3-6.2-4.8-6.2c-0.7,0-1.4,0.2-2,0.4V179.7z"/>
		<path id="XMLID_162_" class="st12" d="M179.3,167.6c4.6,0,7.8,3.6,7.8,8c0,5.7-4.1,8.6-7.8,8.6c-5.2,0-8-4-8-7.9
			C171.2,170.3,175.7,167.6,179.3,167.6L179.3,167.6z M178.8,169c-1.7,0-3.3,2-3.3,6c0,4.4,1.6,7.7,4.1,7.7c1.7,0,3.2-1.3,3.2-6.2
			C182.8,172,181.4,169,178.8,169L178.8,169z"/>
		<path id="XMLID_165_" class="st12" d="M195.1,171.3c1.2-2.1,2.6-3.7,4.1-3.7c1.3,0,2.2,1,2.2,2.1c0,1-0.7,1.9-1.5,2.3
			c-0.4,0.2-0.8,0.1-1-0.1c-0.5-0.5-1-0.7-1.6-0.7c-0.8,0-1.7,0.7-2.3,2.4v6.4c0,2.2,0.2,2.4,2.9,2.6v1.2h-9v-1.2
			c2.1-0.2,2.3-0.4,2.3-2.6v-7.5c0-2-0.2-2.2-2-2.5v-1.1c2-0.3,3.9-0.7,5.8-1.4L195.1,171.3L195.1,171.3z"/>
		<path id="XMLID_167_" class="st12" d="M214.4,184.1c-0.8,0-1.5-0.3-1.9-0.7c-0.5-0.5-0.7-1-0.9-1.4c-1.4,0.9-3,2.1-3.9,2.1
			c-2.8,0-4.6-2.2-4.6-4.5c0-1.8,0.9-2.8,2.8-3.6c2-0.7,4.8-1.6,5.6-2.4v-0.7c0-2.3-1-3.6-2.5-3.6c-0.6,0-1,0.2-1.4,0.7
			c-0.4,0.5-0.7,1.3-1,2.4c-0.2,0.8-0.7,1-1.3,1c-0.8,0-1.9-0.8-1.9-1.7c0-0.6,0.4-1,1.2-1.6c1.2-0.8,3.5-2.1,5.6-2.5
			c1.3,0,2.4,0.3,3.3,1.1c1.4,1.1,1.7,2.6,1.7,4.4v6.2c0,1.6,0.6,2.2,1.1,2.2c0.5,0,0.9-0.2,1.3-0.3l0.4,1.2L214.4,184.1z
			 M211.5,175.2c-0.8,0.4-1.9,0.9-2.6,1.3c-1.2,0.6-1.8,1.2-1.8,2.5c0,1.8,1.3,2.6,2.3,2.6c0.7,0,1.5-0.4,2.1-0.9L211.5,175.2z"/>
		<path id="XMLID_170_" class="st12" d="M225.9,183.7c-0.7,0.3-1.2,0.4-1.5,0.4c-2.5,0-3.9-1.3-3.9-4.4v-10h-2.3l-0.2-0.5l1-1.3h1.5
			v-2.5l3.3-2.6l0.5,0.2v4.9h3.7c0.4,0.4,0.3,1.5-0.3,1.8h-3.4v8.7c0,2.8,1.2,3.2,2,3.2c0.7,0,1.4-0.2,2-0.5l0.3,1.3L225.9,183.7z"
			/>
		<path id="XMLID_172_" class="st12" d="M230,183.7v-1.2c2.1-0.3,2.3-0.4,2.3-2.8v-7.1c0-2.3-0.2-2.3-2.1-2.6v-1.1
			c2.1-0.3,4.1-0.7,5.9-1.3v12.2c0,2.4,0.2,2.6,2.4,2.8v1.2H230z M231.7,162.9c0-1.3,1.1-2.3,2.3-2.3c1.3,0,2.2,1,2.2,2.3
			c0,1.2-1,2.2-2.3,2.2C232.8,165.2,231.7,164.1,231.7,162.9z"/>
		<path id="XMLID_175_" class="st12" d="M255.9,169.2c-1.8,0.3-2.2,0.6-3,2.4c-1.2,2.8-3,7.1-5,12.4h-1.3c-1.6-4.3-3.2-8.4-4.9-12.5
			c-0.7-1.8-1.1-2.1-2.9-2.4V168h8v1.2c-1.7,0.2-1.8,0.5-1.3,1.8c0.8,2.5,2.2,6.1,2.9,7.9c0.8-2.1,1.9-5.3,2.7-7.7
			c0.5-1.3,0.3-1.7-1.6-2V168h6.4V169.2z"/>
		<path id="XMLID_177_" class="st12" d="M269.6,180.5c-2.2,2.9-4.7,3.6-6.1,3.6c-4.5,0-7.1-3.5-7.1-7.6c0-2.7,1.1-4.9,2.5-6.4
			c1.5-1.5,3.4-2.5,5.2-2.5h0c3.1,0,5.6,2.8,5.6,5.7c0,0.8-0.1,1.2-0.9,1.3c-0.6,0.1-5,0.4-8.7,0.6c0.1,4.1,2.4,6,4.9,6
			c1.4,0,2.7-0.5,4-1.6L269.6,180.5z M260.2,173.4c1.7,0,3.3,0,5-0.1c0.6,0,0.8-0.2,0.8-0.7c0-1.8-1-3.5-2.5-3.5
			C262,169.1,260.6,170.7,260.2,173.4z"/>
		<path id="XMLID_180_" class="st12" d="M292.9,180.5c-1.6,2.2-3.9,3.7-6,3.7c-4.6,0-7.4-3.7-7.4-7.6c0-2.6,1.3-5.1,3.6-6.9
			c2.1-1.5,4.3-2.1,5.6-2.1h0c1.3,0,2.5,0.4,3.1,0.9c0.5,0.4,0.7,0.8,0.6,1.3c0,1-0.9,1.9-1.4,1.9c-0.2,0-0.4-0.1-0.7-0.4
			c-1.3-1.2-2.4-1.7-3.5-1.7c-1.9,0-3.5,1.8-3.5,5.4c0,4.8,3.2,6.3,4.9,6.3c1.5,0,2.5-0.4,4-1.6L292.9,180.5z"/>
		<path id="XMLID_182_" class="st12" d="M307.8,180.5c-2.2,2.9-4.7,3.6-6.1,3.6c-4.5,0-7.1-3.5-7.1-7.6c0-2.7,1.1-4.9,2.5-6.4
			c1.5-1.5,3.4-2.5,5.2-2.5h0c3.1,0,5.6,2.8,5.6,5.7c0,0.8-0.1,1.2-0.9,1.3c-0.6,0.1-5,0.4-8.7,0.6c0.1,4.1,2.4,6,4.9,6
			c1.4,0,2.7-0.5,4-1.6L307.8,180.5z M298.4,173.4c1.7,0,3.3,0,5-0.1c0.6,0,0.8-0.2,0.8-0.7c0-1.8-1-3.5-2.5-3.5
			C300.2,169.1,298.8,170.7,298.4,173.4z"/>
		<path id="XMLID_185_" class="st12" d="M309.2,183.7v-1.2c2.1-0.3,2.4-0.5,2.4-2.7v-16.1c0-2.2-0.2-2.3-2.3-2.5v-1.1
			c2-0.2,4.4-0.7,6-1.2v21c0,2.3,0.2,2.5,2.5,2.7v1.2H309.2z"/>
		<path id="XMLID_187_" class="st12" d="M332.7,180.5c-2.2,2.9-4.7,3.6-6.1,3.6c-4.5,0-7.1-3.5-7.1-7.6c0-2.7,1.1-4.9,2.5-6.4
			c1.5-1.5,3.4-2.5,5.2-2.5h0c3.1,0,5.6,2.8,5.6,5.7c0,0.8-0.1,1.2-0.9,1.3c-0.6,0.1-5,0.4-8.7,0.6c0.1,4.1,2.4,6,4.9,6
			c1.4,0,2.7-0.5,4-1.6L332.7,180.5z M323.4,173.4c1.7,0,3.3,0,5-0.1c0.6,0,0.8-0.2,0.8-0.7c0-1.8-1-3.5-2.5-3.5
			C325.1,169.1,323.8,170.7,323.4,173.4z"/>
		<path id="XMLID_190_" class="st12" d="M341.9,168.2c0.8-0.4,1.3-0.6,1.9-0.6c4,0,7.1,3.4,7.1,7.5c0,5.3-4.1,9.1-9,9.1
			c-1.8,0-3.5-0.4-5.7-1.3v-19.1c0-2-0.1-2.3-2.3-2.5v-1.2c1.8-0.2,4.3-0.7,6-1.2V169L341.9,168.2z M340,179.7
			c0,0.5,0.1,0.9,0.2,1.2c0.2,0.6,1.1,1.7,2.5,1.7c2.3,0,4.1-2.2,4.1-6.5c0-4.3-2.3-6.2-4.8-6.2c-0.7,0-1.4,0.2-2,0.4V179.7z"/>
		<path id="XMLID_193_" class="st12" d="M359.1,171.3c1.2-2.1,2.6-3.7,4.1-3.7c1.3,0,2.2,1,2.2,2.1c0,1-0.7,1.9-1.5,2.3
			c-0.4,0.2-0.8,0.1-1-0.1c-0.5-0.5-1-0.7-1.6-0.7c-0.8,0-1.7,0.7-2.3,2.4v6.4c0,2.2,0.2,2.4,2.9,2.6v1.2h-9v-1.2
			c2.1-0.2,2.3-0.4,2.3-2.6v-7.5c0-2-0.2-2.2-2-2.5v-1.1c2-0.3,3.9-0.7,5.8-1.4L359.1,171.3L359.1,171.3z"/>
		<path id="XMLID_195_" class="st12" d="M366.9,183.7v-1.2c2.1-0.3,2.3-0.4,2.3-2.8v-7.1c0-2.3-0.2-2.3-2.1-2.6v-1.1
			c2.1-0.3,4.1-0.7,5.9-1.3v12.2c0,2.4,0.2,2.6,2.4,2.8v1.2H366.9z M368.6,162.9c0-1.3,1.1-2.3,2.3-2.3c1.3,0,2.2,1,2.2,2.3
			c0,1.2-1,2.2-2.3,2.2C369.7,165.2,368.6,164.1,368.6,162.9z"/>
		<path id="XMLID_198_" class="st12" d="M384.1,183.7c-0.7,0.3-1.2,0.4-1.5,0.4c-2.5,0-3.9-1.3-3.9-4.4v-10h-2.3l-0.2-0.5l1-1.3h1.5
			v-2.5l3.3-2.6l0.5,0.2v4.9h3.7c0.4,0.4,0.3,1.5-0.3,1.8h-3.4v8.7c0,2.8,1.2,3.2,2,3.2c0.7,0,1.4-0.2,2-0.5l0.3,1.3L384.1,183.7z"
			/>
		<path id="XMLID_200_" class="st12" d="M404.1,169.2c-1.8,0.3-2.1,0.6-3,2.5c-0.8,1.9-2,4.8-4.2,10.1c-2.3,5.7-3,7.7-3.6,9.6
			c-0.2,0.7-0.7,1-1.3,1c-1,0-2.3-1-2.3-2.1c0-0.6,0.3-0.9,1-1.3c1.2-0.7,1.9-1.5,2.6-2.6c0.5-0.9,0.7-1.4,0.8-1.8
			c0.2-0.5,0.2-1-0.1-1.6c-1.6-4.6-3.4-9.3-4.2-11.3c-0.7-1.7-1.1-2.1-2.9-2.3V168h8.1v1.2c-1.6,0.2-1.8,0.5-1.4,1.7l2.8,8.2
			c0.9-2.3,2.2-5.9,2.9-8.1c0.4-1.2,0.2-1.6-1.7-1.9V168h6.5V169.2z"/>
		<path id="XMLID_202_" class="st12" d="M414.7,168v-0.6c0-0.9,0.2-1.7,0.4-2.5c0.2-0.8,0.9-2.5,2.8-4.1c1.3-1.1,2.6-1.8,4.1-1.9
			c1.4,0,2.3,0.5,2.8,1.1c0.4,0.4,0.5,1,0.3,1.4c-0.1,0.3-0.4,0.8-0.9,1.2c-0.4,0.3-0.8,0.3-1.1,0c-0.8-0.8-1.8-1.5-2.9-1.5
			c-0.7,0-1.1,0.4-1.4,1c-0.3,0.7-0.5,1.9-0.4,4.9l0,1.1h4c0.2,0.4,0,1.5-0.4,1.8h-3.6v10c0,2.3,0.2,2.5,2.9,2.7v1.2h-9v-1.2
			c2.1-0.3,2.3-0.5,2.3-2.7v-10.1h-2.3l-0.2-0.5l1-1.3H414.7z"/>
		<path id="XMLID_204_" class="st12" d="M436.6,180.5c-2.2,2.9-4.7,3.6-6.1,3.6c-4.5,0-7.1-3.5-7.1-7.6c0-2.7,1.1-4.9,2.5-6.4
			c1.5-1.5,3.4-2.5,5.2-2.5h0c3.1,0,5.6,2.8,5.6,5.7c0,0.8-0.2,1.2-0.9,1.3c-0.6,0.1-5,0.4-8.7,0.6c0.1,4.1,2.4,6,4.9,6
			c1.4,0,2.7-0.5,4-1.6L436.6,180.5z M427.2,173.4c1.7,0,3.3,0,5-0.1c0.6,0,0.8-0.2,0.8-0.7c0-1.8-1-3.5-2.5-3.5
			C428.9,169.1,427.6,170.7,427.2,173.4z"/>
		<path id="XMLID_207_" class="st12" d="M452.3,180.5c-2.2,2.9-4.7,3.6-6.1,3.6c-4.5,0-7.1-3.5-7.1-7.6c0-2.7,1.1-4.9,2.5-6.4
			c1.5-1.5,3.4-2.5,5.2-2.5h0c3.1,0,5.6,2.8,5.6,5.7c0,0.8-0.2,1.2-0.9,1.3c-0.6,0.1-5,0.4-8.7,0.6c0.1,4.1,2.4,6,4.9,6
			c1.4,0,2.7-0.5,4-1.6L452.3,180.5z M442.9,173.4c1.7,0,3.3,0,5-0.1c0.6,0,0.8-0.2,0.8-0.7c0-1.8-1-3.5-2.5-3.5
			C444.6,169.1,443.3,170.7,442.9,173.4z"/>
		<path id="XMLID_210_" class="st12" d="M461.7,183.7c-0.7,0.3-1.2,0.4-1.5,0.4c-2.5,0-3.9-1.3-3.9-4.4v-10H454l-0.1-0.5l1-1.3h1.5
			v-2.5l3.3-2.6l0.5,0.2v4.9h3.7c0.4,0.4,0.3,1.5-0.3,1.8h-3.4v8.7c0,2.8,1.2,3.2,2,3.2c0.7,0,1.4-0.2,2-0.5l0.3,1.3L461.7,183.7z"
			/>
		<path id="XMLID_212_" class="st12" d="M497.2,169.2c-1.7,0.3-2,0.5-2.8,2.4c-1.2,3.2-2.7,7.5-4.3,12.4h-1.3
			c-1.3-3.5-2.8-6.9-4.1-10.3c-1.3,3.4-2.6,6.7-4,10.3h-1.3c-1.3-4.3-2.8-8.6-4.1-12.6c-0.6-1.7-0.9-2-2.5-2.2V168h8.1v1.2
			c-2,0.3-2.2,0.5-1.8,1.9c0.7,2.4,1.5,5,2.2,7.5h0.1c1.3-3.3,2.5-6.7,3.8-10.4h1.3c1.3,3.4,2.6,6.9,4,10.4h0.1
			c0.6-2,1.6-5.3,2.1-7.3c0.4-1.6,0.1-1.8-2-2.1V168h6.6V169.2z"/>
		<path id="XMLID_214_" class="st12" d="M511,180.5c-2.2,2.9-4.7,3.6-6.1,3.6c-4.5,0-7.1-3.5-7.1-7.6c0-2.7,1.1-4.9,2.5-6.4
			c1.5-1.5,3.4-2.5,5.2-2.5h0c3.1,0,5.6,2.8,5.6,5.7c0,0.8-0.2,1.2-0.9,1.3c-0.6,0.1-5,0.4-8.7,0.6c0.1,4.1,2.4,6,4.9,6
			c1.4,0,2.7-0.5,4-1.6L511,180.5z M501.6,173.4c1.7,0,3.3,0,5-0.1c0.6,0,0.8-0.2,0.8-0.7c0-1.8-1-3.5-2.5-3.5
			C503.3,169.1,502,170.7,501.6,173.4z"/>
		<path id="XMLID_217_" class="st12" d="M520.2,168.2c0.8-0.4,1.3-0.6,1.9-0.6c4,0,7.1,3.4,7.1,7.5c0,5.3-4.1,9.1-9,9.1
			c-1.8,0-3.5-0.4-5.7-1.3v-19.1c0-2-0.1-2.3-2.3-2.5v-1.2c1.8-0.2,4.3-0.7,6-1.2V169L520.2,168.2z M518.2,179.7
			c0,0.5,0.1,0.9,0.2,1.2c0.2,0.6,1.1,1.7,2.5,1.7c2.3,0,4.1-2.2,4.1-6.5c0-4.3-2.3-6.2-4.8-6.2c-0.7,0-1.4,0.2-2,0.4V179.7z"/>
		<path id="XMLID_220_" class="st12" d="M541,172.5c-0.9-2.3-2-3.6-3.6-3.6c-1.1,0-2,0.9-2,2.1c0,1.3,1,2,2.8,2.8
			c2.8,1.1,4.7,2.5,4.7,5.1c0,3.4-3.2,5.1-6.1,5.1c-1.9,0-3.7-0.7-4.4-1.2c-0.2-0.6-0.5-3-0.6-4.5l1.2-0.1c0.7,2.3,2.2,4.5,4.3,4.5
			c1.2,0,2.2-0.9,2.2-2.1c0-1.3-0.8-2.2-2.7-3.1c-1.9-0.9-4.5-2.2-4.5-5.1c0-2.7,2.2-4.9,5.8-4.9c1.6,0,2.5,0.3,3.3,0.7
			c0.3,0.8,0.8,3.2,0.8,4L541,172.5z"/>
		<path id="XMLID_222_" class="st12" d="M544.8,183.7v-1.2c2.1-0.3,2.3-0.4,2.3-2.8v-7.1c0-2.3-0.2-2.3-2.1-2.6v-1.1
			c2.1-0.3,4.1-0.7,5.9-1.3v12.2c0,2.4,0.2,2.6,2.4,2.8v1.2H544.8z M546.5,162.9c0-1.3,1.1-2.3,2.3-2.3c1.3,0,2.2,1,2.2,2.3
			c0,1.2-1,2.2-2.3,2.2C547.6,165.2,546.5,164.1,546.5,162.9z"/>
		<path id="XMLID_225_" class="st12" d="M562,183.7c-0.7,0.3-1.2,0.4-1.5,0.4c-2.5,0-3.9-1.3-3.9-4.4v-10h-2.3l-0.1-0.5l1-1.3h1.5
			v-2.5l3.3-2.6l0.5,0.2v4.9h3.7c0.4,0.4,0.3,1.5-0.3,1.8h-3.4v8.7c0,2.8,1.2,3.2,2,3.2c0.7,0,1.4-0.2,2-0.5l0.3,1.3L562,183.7z"/>
		<path id="XMLID_227_" class="st12" d="M579.1,180.5c-2.2,2.9-4.7,3.6-6.1,3.6c-4.5,0-7.1-3.5-7.1-7.6c0-2.7,1.1-4.9,2.5-6.4
			c1.5-1.5,3.4-2.5,5.2-2.5h0c3.1,0,5.6,2.8,5.6,5.7c0,0.8-0.2,1.2-0.9,1.3c-0.6,0.1-5,0.4-8.7,0.6c0.1,4.1,2.4,6,4.9,6
			c1.4,0,2.7-0.5,4-1.6L579.1,180.5z M569.8,173.4c1.7,0,3.3,0,5-0.1c0.6,0,0.8-0.2,0.8-0.7c0-1.8-1-3.5-2.5-3.5
			C571.5,169.1,570.2,170.7,569.8,173.4z"/>
		<g id="XMLID_6_">
			<path id="XMLID_7_" class="st13" d="M33.1,77.9c-0.4-1.2-1-2-1.9-2.5c-0.9-0.5-2-1-3.4-1.4l-5.1-1.6v-3.4h33.9v3.4l-10.9,2.4
				l14.3,41.8l3.1,10l14.4-39.9l7.4-17.7h4.5l16.9,47.6l3.1,9.9l17.9-51.2l-10.8-2.8v-3.4h26.6v3.4l-5.1,2.1
				c-1.4,0.6-2.5,1.1-3.3,1.5c-0.8,0.4-1.4,1.2-1.9,2.4l-18.3,49.3l-7.8,16.1h-3.9L85,93.5L83.2,86l-14.8,41.7l-8,16.1h-3.9
				L33.1,77.9z"/>
			<path id="XMLID_10_" class="st13" d="M144.9,139.6l8.6-1.9c1-0.3,1.8-0.8,2.5-1.5c0.6-0.8,1-1.7,1-2.8V82.9
				c0-1.3-0.4-2.4-1.1-3.4c-0.7-0.9-1.9-1.7-3.7-2.3l-7-2.5v-2.1l24.6-5.3v65.9c0,1.2,0.3,2.1,1,2.9c0.6,0.7,1.5,1.2,2.5,1.5l8,1.9
				v3.4h-36.3V139.6z M162.5,49.4c-1.3,0-2.5-0.2-3.6-0.7c-1.1-0.5-2.1-1.1-2.9-1.9c-0.8-0.8-1.5-1.8-1.9-2.9
				c-0.5-1.1-0.7-2.3-0.7-3.7c0-1.3,0.2-2.5,0.7-3.6c0.5-1.1,1.1-2.1,1.9-2.9c0.8-0.8,1.8-1.5,2.9-1.9c1.1-0.5,2.3-0.7,3.6-0.7
				c1.3,0,2.5,0.2,3.6,0.7c1.1,0.5,2.2,1.1,3,1.9c0.9,0.8,1.5,1.8,2,2.9c0.5,1.1,0.7,2.3,0.7,3.6c0,1.3-0.2,2.5-0.7,3.7
				c-0.5,1.1-1.2,2.1-2,2.9c-0.9,0.8-1.9,1.5-3,1.9C165,49.1,163.8,49.4,162.5,49.4z"/>
			<path id="XMLID_13_" class="st13" d="M184.7,139.6l8.3-1.9c1-0.3,1.8-0.8,2.5-1.5c0.6-0.8,1-1.7,1-2.8V43.6c0-1.3-0.3-2.4-1-3.4
				c-0.7-0.9-1.9-1.7-3.6-2.3l-7-2.5v-2.1l24.5-5.9v78.4l30.9-30.7l-9.7-2.8v-3.4h29.3v3.4l-8.2,2.1c-1.4,0.4-2.6,1-3.6,1.8
				c-1,0.8-1.8,1.5-2.3,2.1l-20.2,18.8l27.7,36.9c0.7,0.9,1.4,1.6,2.3,2.3c0.8,0.7,2,1.2,3.5,1.6l6,1.6v3.4h-33.1v-3.4l8.6-2.4
				l-23.5-31.3l-7.5,4v23.4c0,1.2,0.3,2.1,1,2.9c0.6,0.7,1.5,1.2,2.5,1.5l7.3,1.9v3.4h-35.3V139.6z"/>
			<path id="XMLID_15_" class="st13" d="M265,139.6l8.6-1.9c1-0.3,1.8-0.8,2.5-1.5c0.6-0.8,1-1.7,1-2.8V82.9c0-1.3-0.4-2.4-1.1-3.4
				c-0.7-0.9-1.9-1.7-3.7-2.3l-7-2.5v-2.1l24.6-5.3v65.9c0,1.2,0.3,2.1,1,2.9c0.6,0.7,1.5,1.2,2.5,1.5l8,1.9v3.4H265V139.6z
				 M282.6,49.4c-1.3,0-2.5-0.2-3.6-0.7c-1.1-0.5-2.1-1.1-2.9-1.9c-0.8-0.8-1.5-1.8-1.9-2.9c-0.5-1.1-0.7-2.3-0.7-3.7
				c0-1.3,0.2-2.5,0.7-3.6c0.5-1.1,1.1-2.1,1.9-2.9c0.8-0.8,1.8-1.5,2.9-1.9c1.1-0.5,2.3-0.7,3.6-0.7c1.3,0,2.5,0.2,3.6,0.7
				c1.1,0.5,2.2,1.1,3,1.9c0.9,0.8,1.5,1.8,2,2.9c0.5,1.1,0.7,2.3,0.7,3.6c0,1.3-0.2,2.5-0.7,3.7c-0.5,1.1-1.2,2.1-2,2.9
				c-0.9,0.8-1.9,1.5-3,1.9C285.1,49.1,283.9,49.4,282.6,49.4z"/>
			<path id="XMLID_20_" class="st13" d="M306.6,139.4l9.7-2.1c1-0.3,1.9-0.8,2.6-1.6c0.7-0.8,1-1.8,1-2.9v-85c0-1.2-0.3-2.2-1-3
				c-0.7-0.8-1.5-1.3-2.6-1.6l-9.7-2v-3.6h76.9v24.5h-4.1L374,46.1c-0.3-0.8-0.6-1.4-1.1-1.9c-0.5-0.5-1.1-0.8-2.1-0.8h-37.2v43
				h24.9c1,0,1.8-0.2,2.2-0.7c0.5-0.5,0.8-1.1,1.1-1.8l4.4-13h3.6v36.8h-3.6l-4.4-12.8c-0.3-0.8-0.6-1.4-1.1-1.9
				c-0.5-0.5-1.2-0.8-2.2-0.8h-24.9v40.7c0,1.2,0.4,2.1,1.1,2.9c0.7,0.8,1.6,1.3,2.6,1.6l10.9,2.1v3.6h-41.7V139.4z"/>
			<path id="XMLID_231_" class="st13" d="M446.4,127v5.5c-1.5,1.5-3.3,3-5.4,4.4c-2,1.5-4.3,2.8-6.8,4c-2.5,1.2-5.1,2.1-7.9,2.9
				c-2.8,0.7-5.7,1.1-8.8,1.1c-5,0-9.5-0.8-13.6-2.5c-4.1-1.7-7.6-4.2-10.6-7.5c-3-3.3-5.3-7.3-6.9-12.1c-1.6-4.8-2.4-10.3-2.4-16.6
				c0-5.2,0.8-10.2,2.3-14.9c1.6-4.8,3.8-9,6.8-12.6c3-3.6,6.6-6.5,10.8-8.7c4.3-2.2,9.1-3.2,14.4-3.2c4.5,0,8.6,0.8,12.1,2.5
				s6.5,3.9,8.9,6.6c2.4,2.7,4.2,5.8,5.4,9.3c1.2,3.5,1.8,7,1.8,10.6c0,0.5,0,0.9,0,1.5c0,0.5-0.1,1-0.1,1.5c0,0.5-0.1,1-0.2,1.5
				c-0.1,0.5-0.1,0.9-0.2,1.3h-48.6c0,11.1,2.2,19.7,6.3,25.6c4.2,6,10.4,9,18.8,9c2.9,0,5.5-0.3,7.9-1c2.4-0.6,4.5-1.4,6.5-2.3
				c1.9-0.9,3.6-1.9,5-2.9c1.5-1,2.7-2,3.7-2.9H446.4z M433,96.4c0-3.2-0.3-6.3-0.8-9.3c-0.5-3-1.4-5.6-2.6-7.9
				c-1.2-2.3-2.8-4.1-4.8-5.5c-2-1.4-4.3-2-7.1-2s-5.3,0.6-7.5,1.8c-2.2,1.2-4.2,2.8-5.8,5c-1.7,2.1-3,4.7-4.1,7.8
				c-1.1,3.1-1.8,6.4-2.3,10.2H433z"/>
			<path id="XMLID_234_" class="st13" d="M517.1,127v5.5c-1.5,1.5-3.3,3-5.4,4.4c-2,1.5-4.3,2.8-6.8,4c-2.5,1.2-5.1,2.1-7.9,2.9
				c-2.8,0.7-5.7,1.1-8.8,1.1c-5,0-9.5-0.8-13.6-2.5c-4.1-1.7-7.6-4.2-10.6-7.5c-3-3.3-5.3-7.3-6.9-12.1c-1.6-4.8-2.4-10.3-2.4-16.6
				c0-5.2,0.8-10.2,2.3-14.9c1.6-4.8,3.8-9,6.8-12.6c3-3.6,6.6-6.5,10.8-8.7c4.3-2.2,9.1-3.2,14.4-3.2c4.5,0,8.6,0.8,12.1,2.5
				s6.5,3.9,8.9,6.6c2.4,2.7,4.2,5.8,5.4,9.3c1.2,3.5,1.8,7,1.8,10.6c0,0.5,0,0.9,0,1.5c0,0.5-0.1,1-0.1,1.5c0,0.5-0.1,1-0.2,1.5
				c-0.1,0.5-0.1,0.9-0.2,1.3h-48.6c0,11.1,2.2,19.7,6.3,25.6c4.2,6,10.4,9,18.8,9c2.9,0,5.5-0.3,7.9-1c2.4-0.6,4.5-1.4,6.5-2.3
				c1.9-0.9,3.6-1.9,5-2.9c1.5-1,2.7-2,3.7-2.9H517.1z M503.6,96.4c0-3.2-0.3-6.3-0.8-9.3c-0.5-3-1.4-5.6-2.6-7.9
				c-1.2-2.3-2.8-4.1-4.8-5.5c-2-1.4-4.3-2-7.1-2s-5.3,0.6-7.5,1.8c-2.2,1.2-4.2,2.8-5.8,5c-1.7,2.1-3,4.7-4.1,7.8
				c-1.1,3.1-1.8,6.4-2.3,10.2H503.6z"/>
			<path id="XMLID_237_" class="st13" d="M533.8,75.5h-11.9v-3.7c2-0.5,3.8-1,5.4-1.4c1.6-0.4,2.9-1,4.1-1.8
				c1.1-0.8,2.1-1.8,2.7-3.1c0.7-1.3,1.1-3.1,1.2-5.4l0.5-9.4l10.9-2.3v21.1h26.1l-2.2,6.1h-23.9v52.2c0,1.5,0.5,2.8,1.5,3.9
				c1,1,2.3,1.9,3.7,2.6c1.5,0.7,3,1.2,4.6,1.5c1.6,0.3,3,0.5,4.2,0.5c0.8,0,1.7-0.1,2.8-0.3c1-0.2,2-0.4,3-0.6
				c1-0.2,1.8-0.5,2.6-0.8c0.8-0.3,1.4-0.5,1.8-0.7h0.8v4.1c-0.7,0.5-1.7,1.1-2.9,1.8c-1.2,0.7-2.7,1.5-4.4,2.2
				c-1.7,0.7-3.5,1.3-5.5,1.8c-2,0.5-4.1,0.8-6.4,0.8c-2.7,0-5.2-0.3-7.5-1c-2.3-0.7-4.2-1.6-5.9-2.9c-1.7-1.2-3-2.8-3.9-4.7
				c-0.9-1.9-1.4-4-1.4-6.5V75.5z"/>
		</g>
		<g id="XMLID_3_">
			<path id="XMLID_239_" class="st13" d="M615.3,178l8.9-2.8c1.9-0.6,3.7-1.8,5.5-3.5c1.8-1.7,3.3-3.3,4.4-4.8l45.6-64.4L635.1,33
				c-0.5-0.7-1-1.5-1.7-2.2c-0.6-0.8-1.3-1.5-2.1-2.2c-0.7-0.7-1.5-1.3-2.2-1.8c-0.7-0.5-1.4-0.9-2.1-1l-10.4-2.9v-5.7H677v5.7
				l-20.8,4l30.2,47.8l8.5,13.9l40.3-61.2l-19.7-4.5v-5.7h47v5.7l-8.9,2.7c-1.8,0.6-3.6,1.7-5.4,3.5c-1.9,1.8-3.3,3.4-4.5,5
				l-43.3,62.1l45.8,71.8c0.9,1.4,2.1,2.8,3.7,4.3c1.6,1.5,3,2.4,4.2,2.8l10.4,3v5.7h-60.2V178l20.8-4l-31.4-49.8l-8.3-14
				l-42.3,63.3l19.5,4.5v5.7h-47V178z"/>
		</g>
	</g>
</g>
</svg>
